<svg width="180" height="180" viewBox="0 0 180 180" fill="none" xmlns="http://www.w3.org/2000/svg">
  <!-- Fondo circular dorado con gradiente -->
  <defs>
    <radialGradient id="appleGoldGradient" cx="0.5" cy="0.5" r="0.5">
      <stop offset="0%" stop-color="#FFD700"/>
      <stop offset="100%" stop-color="#FFA500"/>
    </radialGradient>
  </defs>
  
  <!-- Fondo circular dorado -->
  <circle cx="90" cy="90" r="90" fill="url(#appleGoldGradient)"/>
  
  <!-- Bola de lotería principal -->
  <circle cx="90" cy="90" r="55" fill="#000000"/>
  <circle cx="90" cy="90" r="50" fill="#1F2937"/>
  
  <!-- Números de lotería -->
  <text x="90" y="80" text-anchor="middle" fill="#FFD700" font-family="Arial, sans-serif" font-size="22" font-weight="bold">GANA</text>
  <text x="90" y="100" text-anchor="middle" fill="#FFD700" font-family="Arial, sans-serif" font-size="14" font-weight="bold">FACIL</text>
  
  <!-- Bola de lotería pequeña -->
  <circle cx="30" cy="30" r="12" fill="#FFD700"/>
  <circle cx="30" cy="30" r="10" fill="#000000"/>
  <text x="30" y="34" text-anchor="middle" fill="#FFD700" font-family="Arial, sans-serif" font-size="8" font-weight="bold">25</text>
  
  <!-- Bola de lotería pequeña -->
  <circle cx="150" cy="30" r="12" fill="#FFD700"/>
  <circle cx="150" cy="30" r="10" fill="#000000"/>
  <text x="150" y="34" text-anchor="middle" fill="#FFD700" font-family="Arial, sans-serif" font-size="8" font-weight="bold">07</text>
  
  <!-- Bola de lotería pequeña -->
  <circle cx="30" cy="150" r="12" fill="#FFD700"/>
  <circle cx="30" cy="150" r="10" fill="#000000"/>
  <text x="30" y="154" text-anchor="middle" fill="#FFD700" font-family="Arial, sans-serif" font-size="8" font-weight="bold">13</text>
  
  <!-- Bola de lotería pequeña -->
  <circle cx="150" cy="150" r="12" fill="#FFD700"/>
  <circle cx="150" cy="150" r="10" fill="#000000"/>
  <text x="150" y="154" text-anchor="middle" fill="#FFD700" font-family="Arial, sans-serif" font-size="8" font-weight="bold">42</text>
  
  <!-- Estrellas de confianza -->
  <path d="M90 20 L93.5 27.5 L101 28.5 L96.5 33.5 L97.5 40 L90 37 L82.5 40 L83.5 33.5 L79 28.5 L86.5 27.5 Z" fill="#FFD700"/>
  <path d="M90 140 L93.5 147.5 L101 148.5 L96.5 153.5 L97.5 160 L90 157 L82.5 160 L83.5 153.5 L79 148.5 L86.5 147.5 Z" fill="#FFD700"/>
  <path d="M20 90 L27.5 93.5 L28.5 101 L33.5 96.5 L40 97.5 L37 90 L40 82.5 L33.5 83.5 L28.5 79 L27.5 86.5 Z" fill="#FFD700"/>
  <path d="M160 90 L167.5 93.5 L168.5 101 L173.5 96.5 L180 97.5 L177 90 L180 82.5 L173.5 83.5 L168.5 79 L167.5 86.5 Z" fill="#FFD700"/>
</svg>
