<svg xmlns="http://www.w3.org/2000/svg" viewBox="0 0 64 64" role="img" aria-label="Migrantes UK">
  <defs>
    <linearGradient id="g" x1="0" x2="1" y1="0" y2="1">
      <stop offset="0%" stop-color="#fbbf24"/>
      <stop offset="100%" stop-color="#f59e0b"/>
    </linearGradient>
  </defs>
  <rect width="64" height="64" rx="12" ry="12" fill="#0f172a"/>
  <g transform="translate(12,8)">
    <path d="M20 6c0 3-4 5-4 10 0 5 4 7 8 7s8-2 8-7c0-5-4-7-4-10" fill="none" stroke="url(#g)" stroke-width="2.5" stroke-linecap="round"/>
    <path d="M6 24h36" stroke="#e5e7eb" stroke-width="2"/>
    <path d="M14 24c0 4-4 7-8 7s-8-3-8-7h16Zm36 0c0 4-4 7-8 7s-8-3-8-7h16Z" fill="#fbbf24" opacity="0.9"/>
  </g>
  <title>Migrantes UK</title>
  <desc>Favicon con balanza de justicia</desc>
</svg>

